<svg width="235" height="55" viewBox="0 0 235 55" fill="none" xmlns="http://www.w3.org/2000/svg">
<path d="M234.598 9.89551C234.259 10.7246 233.958 11.4783 233.694 12.1567C233.468 12.8351 233.261 13.438 233.072 13.9656C232.884 14.5686 232.714 15.0962 232.563 15.5485C232.413 16.0761 232.243 16.6791 232.055 17.3574C231.866 17.9604 231.621 18.7141 231.32 19.6186C231.056 20.4854 230.736 21.5218 230.359 22.7278C230.057 20.9188 229.511 19.4867 228.719 18.4315C227.928 17.3386 227.118 16.4906 226.289 15.8877C225.309 15.2093 224.254 14.7194 223.123 14.4179C221.088 14.0787 219.618 14.1164 218.714 14.5309C217.809 14.9455 217.206 15.4731 216.905 16.1138C216.754 16.3776 216.584 16.7168 216.396 17.1313C216.245 17.5082 216.113 17.9039 216 18.3184C215.925 18.733 215.906 19.1475 215.944 19.5621C215.981 19.9766 216.151 20.3158 216.452 20.5796C216.641 20.7681 217.131 21.0319 217.922 21.371C218.714 21.6725 219.656 22.0306 220.749 22.4451C221.879 22.822 223.066 23.2365 224.31 23.6888C225.591 24.141 226.797 24.5932 227.928 25.0455C229.059 25.4977 230.038 25.9499 230.868 26.4022C231.697 26.8544 232.243 27.269 232.507 27.6458C232.733 28.0227 232.978 28.5315 233.242 29.1721C233.543 29.7751 233.751 30.4535 233.864 31.2072C234.014 31.9233 234.052 32.677 233.977 33.4684C233.939 34.2221 233.732 34.9759 233.355 35.7296C232.978 36.4833 232.375 37.1805 231.546 37.8212C230.754 38.4619 229.68 38.9895 228.324 39.404C226.741 39.8939 225.215 40.0258 223.745 39.7997C222.275 39.5736 220.918 39.2344 219.675 38.7822C218.469 38.33 217.413 37.8966 216.509 37.482C215.605 37.0298 214.964 36.8413 214.587 36.9167C214.172 36.9921 213.701 37.1994 213.174 37.5385C212.646 37.8777 212.137 38.2357 211.647 38.6126C211.195 38.9518 210.799 39.2721 210.46 39.5736C210.121 39.8374 209.952 39.9316 209.952 39.8563C209.952 39.7809 210.008 39.5548 210.121 39.1779C210.272 38.801 210.423 38.3488 210.573 37.8212C210.762 37.2559 210.931 36.6529 211.082 36.0122C211.271 35.3339 211.402 34.6932 211.478 34.0902C211.553 33.6003 211.647 32.9973 211.76 32.2813C211.836 31.6406 211.93 30.868 212.043 29.9636C212.194 29.0214 212.363 27.8908 212.552 26.5718C212.74 27.5516 213.004 28.3996 213.343 29.1156C213.72 29.8317 214.078 30.4535 214.417 30.9811C214.832 31.5841 215.228 32.0928 215.605 32.5074C216.17 33.035 216.829 33.5249 217.583 33.9772C218.374 34.4294 219.166 34.8251 219.957 35.1643C220.749 35.4658 221.502 35.6542 222.218 35.7296C222.935 35.805 223.538 35.7296 224.027 35.5035C224.517 35.2774 224.932 34.8628 225.271 34.2598C225.648 33.6568 225.912 32.9973 226.063 32.2813C226.213 31.5652 226.27 30.8869 226.232 30.2462C226.194 29.5679 226.025 29.0214 225.723 28.6068C225.497 28.343 224.97 28.0039 224.14 27.5893C223.349 27.1748 222.388 26.7225 221.257 26.2326C220.165 25.7427 218.996 25.2339 217.753 24.7063C216.547 24.1787 215.397 23.6511 214.304 23.1235C213.249 22.5582 212.363 22.0306 211.647 21.5406C210.969 21.013 210.592 20.5419 210.517 20.1274C210.441 19.5244 210.385 18.8649 210.347 18.1488C210.31 17.3951 210.347 16.6602 210.46 15.9442C210.611 15.1905 210.875 14.4744 211.252 13.7961C211.666 13.1177 212.269 12.5524 213.061 12.1002C213.588 11.7987 214.285 11.5726 215.152 11.4218C216.019 11.2711 216.98 11.1957 218.035 11.1957C219.091 11.158 220.183 11.1957 221.314 11.3088C222.445 11.3841 223.519 11.4972 224.536 11.6479C225.591 11.761 226.534 11.9117 227.363 12.1002C228.229 12.2886 228.889 12.4582 229.341 12.6089C229.869 12.7974 230.434 12.8162 231.037 12.6655C231.565 12.5524 232.13 12.3074 232.733 11.9306C233.336 11.5537 233.958 10.8754 234.598 9.89551Z" fill="white"/>
<path d="M173.829 13.2873C174.583 13.4003 175.261 13.4945 175.864 13.5699C176.429 13.6076 176.938 13.6453 177.39 13.683C177.88 13.7207 178.351 13.7395 178.804 13.7395C179.218 13.7395 179.746 13.7207 180.386 13.683C180.914 13.6453 181.592 13.6076 182.421 13.5699C183.288 13.4945 184.306 13.4003 185.474 13.2873C185.399 13.438 185.248 13.9091 185.022 14.7005C184.796 15.4542 184.57 16.3964 184.344 17.527C184.117 18.6199 183.91 19.8447 183.722 21.2014C183.571 22.5205 183.496 23.8395 183.496 25.1585C183.533 26.4398 183.703 27.6647 184.004 28.8329C184.306 29.9635 184.796 30.8869 185.474 31.6029C186.906 33.0727 188.169 33.9583 189.262 34.2598C190.392 34.5613 191.372 34.5236 192.201 34.1467C193.03 33.7699 193.709 33.2046 194.236 32.4508C194.764 31.6971 195.141 30.9999 195.367 30.3592C195.932 28.6257 196.271 26.7979 196.384 24.8759C196.46 23.2177 196.328 21.371 195.989 19.3359C195.649 17.3009 194.839 15.2281 193.558 13.1177C194.538 13.193 195.386 13.2496 196.102 13.2873C196.818 13.325 197.44 13.3626 197.967 13.4003C198.57 13.438 199.098 13.4757 199.55 13.5134C199.965 13.5511 200.454 13.5511 201.02 13.5134C201.51 13.5134 202.094 13.4945 202.772 13.4569C203.488 13.3815 204.28 13.3061 205.146 13.2307C205.297 16.924 205.429 20.2216 205.542 23.1234C205.655 25.9876 205.731 28.5314 205.768 30.7549C205.844 32.9408 205.881 34.8439 205.881 36.4645C205.881 38.0473 205.881 39.3852 205.881 40.4781C205.844 43.0784 205.731 44.7932 205.542 45.6223C205.241 46.7905 204.694 47.9588 203.903 49.1271C203.149 50.2954 202.188 51.3318 201.02 52.2362C199.851 53.1784 198.495 53.8945 196.95 54.3844C195.442 54.912 193.784 55.1004 191.975 54.9497C190.204 54.7989 188.791 54.554 187.735 54.2148C186.718 53.9133 185.907 53.5553 185.305 53.1407C184.739 52.7262 184.325 52.2928 184.061 51.8405C183.835 51.3883 183.665 50.9172 183.552 50.4273C183.439 49.9751 183.326 49.5417 183.213 49.1271C183.1 48.7126 182.874 48.3545 182.535 48.053C182.12 47.7139 181.687 47.3747 181.234 47.0355C180.82 46.734 180.368 46.4325 179.878 46.131C179.425 45.8295 178.973 45.5846 178.521 45.3961L190.562 44.7178C190.223 45.17 189.978 45.5846 189.827 45.9614C189.676 46.3383 189.582 46.6586 189.544 46.9225C189.507 47.2616 189.525 47.5443 189.601 47.7704C189.752 48.2226 190.015 48.7126 190.392 49.2402C190.807 49.8055 191.334 50.2389 191.975 50.5404C192.616 50.8795 193.369 50.9926 194.236 50.8795C195.141 50.7665 196.158 50.2954 197.289 49.4663C198.231 48.7502 199.022 47.6008 199.663 46.018C200.191 44.6613 200.605 42.7581 200.907 40.3085C201.208 37.8589 201.152 34.6367 200.737 30.6419C200.059 32.9785 199.135 34.7686 197.967 36.0122C196.799 37.2559 195.631 38.1603 194.462 38.7256C193.106 39.404 191.692 39.762 190.223 39.7997C188.263 39.7243 186.586 39.4794 185.191 39.0648C183.797 38.6126 182.648 38.0096 181.743 37.2559C180.839 36.5021 180.123 35.6165 179.595 34.599C179.105 33.5437 178.747 32.3755 178.521 31.0941C178.295 29.8128 178.182 28.5314 178.182 27.2501C178.182 25.9311 178.182 24.7063 178.182 23.5757C178.219 22.4451 178.238 21.4275 178.238 20.5231C178.238 19.5809 178.144 18.8272 177.956 18.2619C177.73 17.6966 177.428 17.1313 177.051 16.566C176.75 16.0761 176.335 15.5485 175.808 14.9832C175.242 14.3802 174.583 13.8149 173.829 13.2873Z" fill="white"/>
<path d="M146.243 16.1703C147.222 16.3587 148.07 16.5095 148.786 16.6225C149.54 16.6979 150.181 16.7733 150.708 16.8486C151.311 16.924 151.839 16.9805 152.291 17.0182C152.743 17.0559 153.271 17.0936 153.874 17.1313C154.892 17.169 156.324 17.169 158.17 17.1313C157.077 17.0559 156.211 17.3386 155.57 17.9792C154.967 18.5822 154.515 19.2794 154.213 20.0708C153.836 21.013 153.629 22.1059 153.591 23.3496C153.516 25.0078 153.554 26.5152 153.704 27.8719C153.893 29.191 154.213 30.3216 154.665 31.2637C155.155 32.1682 155.796 32.8465 156.587 33.2988C157.379 33.7133 158.396 33.8264 159.64 33.638C160.884 33.4495 161.826 33.0161 162.467 32.3378C163.145 31.6217 163.635 30.7549 163.936 29.7374C164.238 28.6822 164.407 27.4951 164.445 26.176C164.52 24.857 164.577 23.4815 164.615 22.0494C164.615 20.6173 164.596 19.5997 164.558 18.9968C164.558 18.3561 164.539 17.9415 164.502 17.7531C164.464 17.5647 164.407 17.4893 164.332 17.527C164.257 17.527 164.162 17.4328 164.049 17.2443C163.974 17.0936 163.861 16.9429 163.71 16.7921C163.597 16.6414 163.446 16.4718 163.258 16.2833C163.07 16.0572 162.862 15.8311 162.636 15.605C163.616 15.6427 164.483 15.6804 165.237 15.718C166.028 15.718 166.687 15.7369 167.215 15.7746C167.818 15.8123 168.346 15.8499 168.798 15.8876C169.212 15.9253 169.759 15.9818 170.437 16.0572C171.003 16.1326 171.737 16.208 172.642 16.2833C173.546 16.3587 174.62 16.4718 175.864 16.6225C174.997 16.8109 174.3 17.0936 173.773 17.4705C173.245 17.8473 172.83 18.2242 172.529 18.6011C172.19 19.0156 171.945 19.4678 171.794 19.9578C171.681 20.5984 171.681 21.5783 171.794 22.8973C171.869 24.0656 172.058 25.6673 172.359 27.7023C172.661 29.7374 173.132 32.4132 173.773 35.7296L169.307 38.3865L168.402 30.868C167.309 32.7146 166.141 34.1467 164.897 35.1643C163.691 36.1441 162.561 36.8602 161.506 37.3124C160.262 37.84 159.056 38.1415 157.888 38.2169C156.343 38.2169 155.005 38.1227 153.874 37.9342C152.781 37.7081 151.839 37.4255 151.048 37.0863C150.256 36.7471 149.615 36.3702 149.126 35.9557C148.673 35.5034 148.334 35.0512 148.108 34.599C147.58 33.6568 147.298 32.4508 147.26 30.9811C147.222 29.4736 147.279 27.985 147.43 26.5152C147.58 25.0078 147.75 23.6322 147.938 22.3885C148.127 21.1449 148.183 20.2969 148.108 19.8447C148.033 19.5055 147.92 19.1287 147.769 18.7141C147.618 18.3749 147.43 17.9981 147.204 17.5835C146.977 17.1313 146.657 16.6602 146.243 16.1703Z" fill="white"/>
<path d="M130.018 1.35968C132.43 1.322 134.409 1.75539 135.954 2.65987C137.537 3.56434 138.818 4.63841 139.798 5.88206C140.778 7.12571 141.531 8.38821 142.059 9.66955C142.587 10.9132 143.001 11.8931 143.303 12.6091C143.378 12.7975 143.529 13.0425 143.755 13.344C143.943 13.6078 144.207 13.9281 144.546 14.305C144.923 14.6442 145.394 15.0399 145.96 15.4921C144.791 15.5298 143.755 15.5675 142.851 15.6052C141.946 15.6052 141.173 15.624 140.533 15.6617C139.817 15.6994 139.176 15.7371 138.611 15.7748C138.045 15.8124 137.348 15.869 136.519 15.9444C135.765 16.0197 134.842 16.0951 133.749 16.1705C132.656 16.2458 131.318 16.3589 129.736 16.5096C130.678 15.3791 131.413 14.3804 131.94 13.5136C132.506 12.6091 132.92 11.8177 133.184 11.1393C133.485 10.4233 133.655 9.80145 133.693 9.27384C133.768 8.74623 133.749 8.294 133.636 7.91713C133.41 7.05034 132.826 6.42851 131.884 6.05165C129.17 5.29792 126.796 5.9009 124.761 7.8606C122.764 9.78261 121.332 12.9483 120.465 17.3576C120.05 19.5434 119.654 21.8234 119.278 24.1977C118.938 26.5343 118.807 28.6824 118.882 30.6421C118.957 32.5641 119.334 34.1281 120.012 35.334C120.691 36.54 121.859 37.1053 123.517 37.0299C125.138 36.9546 126.513 36.6908 127.644 36.2385C128.775 35.7486 129.679 35.1833 130.357 34.5426C131.036 33.8643 131.507 33.1482 131.771 32.3945C132.072 31.6031 132.185 30.8682 132.11 30.1898C131.959 29.6622 131.563 29.0969 130.923 28.494C130.357 27.9663 129.509 27.3822 128.379 26.7415C127.248 26.0632 125.628 25.366 123.517 24.6499C125.515 24.5369 127.154 24.4615 128.435 24.4238C129.754 24.3484 130.791 24.2731 131.545 24.1977C132.449 24.1223 133.146 24.0658 133.636 24.0281C134.088 23.9904 134.748 23.9527 135.615 23.915C136.368 23.8774 137.329 23.8585 138.498 23.8585C139.704 23.8585 141.211 23.8397 143.02 23.802C142.342 24.4803 141.814 25.1022 141.437 25.6675C141.249 25.969 141.079 26.2328 140.928 26.4589C140.778 26.8357 140.721 27.6083 140.759 28.7766C140.759 29.7564 140.834 31.2074 140.985 33.1294C141.136 35.0137 141.418 37.5952 141.833 40.874L134.315 41.8915L134.654 34.26C133.787 36.3327 132.694 37.8779 131.375 38.8954C130.094 39.913 128.869 40.629 127.701 41.0435C126.306 41.5335 124.855 41.7596 123.348 41.7219C121.388 41.5335 119.428 41.0812 117.469 40.3652C115.509 39.6492 113.775 38.5562 112.268 37.0865C110.76 35.579 109.592 33.6382 108.763 31.2639C107.972 28.8897 107.727 25.9501 108.028 22.4453C108.367 18.9404 109.196 15.8878 110.516 13.2875C111.872 10.6494 113.549 8.46358 115.547 6.73001C117.544 4.99643 119.786 3.69624 122.274 2.82946C124.799 1.92498 127.38 1.43506 130.018 1.35968Z" fill="white"/>
<path d="M54.3817 13.2873C55.1354 13.4003 55.8138 13.4945 56.4168 13.5699C56.9821 13.6076 57.4908 13.6453 57.9431 13.683C58.433 13.7207 58.9041 13.7395 59.3563 13.7395C59.7709 13.7395 60.2985 13.7207 60.9392 13.683C61.4668 13.6453 62.1451 13.6076 62.9742 13.5699C63.841 13.4945 64.8586 13.4003 66.0268 13.2873C65.9515 13.438 65.8007 13.9091 65.5746 14.7005C65.3485 15.4542 65.1224 16.3964 64.8962 17.527C64.6701 18.6199 64.4628 19.8447 64.2744 21.2014C64.1237 22.5205 64.0483 23.8395 64.0483 25.1585C64.086 26.4398 64.2556 27.6647 64.5571 28.8329C64.8586 29.9635 65.3485 30.8869 66.0268 31.6029C67.4589 33.0727 68.7214 33.9583 69.8143 34.2598C70.9449 34.5613 71.9248 34.5236 72.7539 34.1467C73.583 33.7699 74.2613 33.2046 74.7889 32.4508C75.3166 31.6971 75.6934 30.9999 75.9195 30.3592C76.4848 28.6257 76.824 26.7979 76.9371 24.8759C77.0124 23.2177 76.8805 21.371 76.5414 19.3359C76.2022 17.3009 75.3919 15.2281 74.1106 13.1177C75.0904 13.193 75.9384 13.2496 76.6544 13.2873C77.3705 13.325 77.9923 13.3626 78.5199 13.4003C79.1229 13.438 79.6505 13.4757 80.1027 13.5134C80.5173 13.5511 81.0072 13.5511 81.5725 13.5134C82.0624 13.5134 82.6466 13.4945 83.3249 13.4569C84.041 13.3815 84.8324 13.3061 85.6992 13.2307C85.8499 16.924 85.9818 20.2216 86.0949 23.1234C86.2079 25.9876 86.2833 28.5314 86.321 30.7549C86.3964 32.9408 86.4341 34.8439 86.4341 36.4645C86.4341 38.0473 86.4341 39.3852 86.4341 40.4781C86.3964 43.0784 86.2833 44.7932 86.0949 45.6223C85.7934 46.7905 85.2469 47.9588 84.4555 49.1271C83.7018 50.2954 82.7408 51.3318 81.5725 52.2362C80.4042 53.1784 79.0475 53.8945 77.5024 54.3844C75.9949 54.912 74.3367 55.1004 72.5278 54.9497C70.7565 54.7989 69.3432 54.554 68.288 54.2148C67.2705 53.9133 66.4602 53.5553 65.8572 53.1407C65.292 52.7262 64.8774 52.2928 64.6136 51.8405C64.3875 51.3883 64.2179 50.9172 64.1048 50.4273C63.9918 49.9751 63.8787 49.5417 63.7656 49.1271C63.6526 48.7126 63.4265 48.3545 63.0873 48.053C62.6727 47.7139 62.2393 47.3747 61.7871 47.0355C61.3726 46.734 60.9203 46.4325 60.4304 46.131C59.9782 45.8295 59.5259 45.5846 59.0737 45.3961L71.1145 44.7178C70.7753 45.17 70.5304 45.5846 70.3796 45.9614C70.2289 46.3383 70.1347 46.6586 70.097 46.9225C70.0593 47.2616 70.0781 47.5443 70.1535 47.7704C70.3043 48.2226 70.5681 48.7126 70.9449 49.2402C71.3595 49.8055 71.8871 50.2389 72.5278 50.5404C73.1684 50.8795 73.9222 50.9926 74.7889 50.8795C75.6934 50.7665 76.711 50.2954 77.8415 49.4663C78.7837 48.7502 79.5751 47.6008 80.2158 46.018C80.7434 44.6613 81.158 42.7581 81.4595 40.3085C81.7609 37.8589 81.7044 34.6367 81.2899 30.6419C80.6115 32.9785 79.6882 34.7686 78.5199 36.0122C77.3516 37.2559 76.1833 38.1603 75.0151 38.7256C73.6583 39.404 72.2451 39.762 70.7753 39.7997C68.8156 39.7243 67.1386 39.4794 65.7442 39.0648C64.3498 38.6126 63.2004 38.0096 62.2959 37.2559C61.3914 36.5021 60.6754 35.6165 60.1477 34.599C59.6578 33.5437 59.2998 32.3755 59.0737 31.0941C58.8476 29.8128 58.7345 28.5314 58.7345 27.2501C58.7345 25.9311 58.7345 24.7063 58.7345 23.5757C58.7722 22.4451 58.791 21.4275 58.791 20.5231C58.791 19.5809 58.6968 18.8272 58.5084 18.2619C58.2823 17.6966 57.9808 17.1313 57.6039 16.566C57.3024 16.0761 56.8879 15.5485 56.3603 14.9832C55.795 14.3802 55.1354 13.8149 54.3817 13.2873Z" fill="white"/>
<path d="M28.9999 15.0962C29.7159 15.1339 30.3566 15.1527 30.9219 15.1527C31.5249 15.115 32.0336 15.0773 32.4482 15.0397C32.9381 15.002 33.3715 14.9643 33.7484 14.9266C34.3137 14.8512 34.8978 14.757 35.5008 14.644C36.0284 14.5686 36.5749 14.4744 37.1402 14.3613C37.7431 14.2106 38.3273 14.041 38.8926 13.8525C38.6665 14.4178 38.478 14.9078 38.3273 15.3223C38.1765 15.7369 38.0635 16.0949 37.9881 16.3964C37.875 16.7356 37.8185 17.0182 37.8185 17.2443C37.7808 17.5081 37.762 17.8285 37.762 18.2053C37.7243 18.846 37.7243 19.8824 37.762 21.3145C39.7217 19.6186 41.361 18.2995 42.6801 17.3574C44.0368 16.4152 45.1108 15.6803 45.9023 15.1527C46.8444 14.5497 47.5793 14.154 48.1069 13.9656C49.5013 13.7395 50.7261 14.0598 51.7814 14.9266C52.2336 15.3035 52.667 15.8122 53.0815 16.4529C53.4961 17.0559 53.8541 17.8661 54.1556 18.8837C54.4571 19.9012 54.6832 21.126 54.834 22.5581C54.9847 23.9525 55.0035 25.6296 54.8905 27.5893C54.0991 27.6646 53.383 27.74 52.7424 27.8154C52.1394 27.8908 51.6306 27.9473 51.2161 27.985C50.7261 28.0603 50.2739 28.098 49.8593 28.098L48.333 28.2676C47.8054 28.343 47.1459 28.4184 46.3545 28.4937C45.6008 28.5314 44.6775 28.6068 43.5845 28.7199C45.1674 27.4385 46.1849 26.3268 46.6371 25.3846C47.1271 24.4048 47.3344 23.5945 47.259 22.9538C47.1836 22.2378 46.8444 21.616 46.2414 21.0883C45.5254 20.6738 44.7528 20.523 43.9237 20.6361C43.2077 20.7115 42.3786 21.0318 41.4364 21.5971C40.4943 22.1624 39.4956 23.2176 38.4403 24.7628C38.5157 27.1747 38.5911 29.1721 38.6665 30.7549C38.7795 32.3378 38.8737 33.6191 38.9491 34.5989C39.0622 35.7295 39.1564 36.6152 39.2318 37.2558C39.3448 37.8211 39.5709 38.4241 39.9101 39.0648C40.1739 39.5924 40.5508 40.1765 41.0407 40.8172C41.5306 41.4579 42.1713 42.0986 42.9627 42.7392C41.3045 42.6639 39.9478 42.6639 38.8926 42.7392C38.2519 42.7769 37.6866 42.8146 37.1967 42.8523C36.6691 42.9277 36.1038 43.003 35.5008 43.0784C34.9732 43.1538 34.3514 43.2291 33.6353 43.3045C32.957 43.4176 32.2032 43.5306 31.3741 43.6437C31.6756 43.2291 31.9206 42.7392 32.109 42.1739C32.2974 41.6463 32.4482 41.1376 32.5613 40.6476C32.712 40.0823 32.8251 39.4982 32.9004 38.8952C32.9381 38.3676 32.957 37.5762 32.957 36.521C32.9946 35.4657 32.9758 34.2786 32.9004 32.9596C32.8627 31.6029 32.8062 30.2085 32.7308 28.7764C32.6555 27.3066 32.5613 25.9311 32.4482 24.6497C32.3351 23.3684 32.2032 22.2566 32.0525 21.3145C31.9394 20.3346 31.8075 19.6563 31.6568 19.2794C31.4683 18.8272 31.2422 18.3749 30.9784 17.9227C30.7523 17.5081 30.4697 17.0747 30.1305 16.6225C29.7913 16.1326 29.4144 15.6238 28.9999 15.0962Z" fill="white"/>
<path d="M0.00012207 3.16853C2.26131 3.35696 4.23985 3.47002 5.93574 3.5077C7.66932 3.54539 9.13909 3.56423 10.3451 3.56423C11.7395 3.56423 12.9454 3.52655 13.963 3.45117C15.0182 3.33812 16.3937 3.18737 18.0896 2.99894C19.5217 2.8105 21.3684 2.56554 23.6295 2.26405C25.8907 1.92487 28.6418 1.49148 31.8829 0.963867C31.4683 1.60454 31.1103 2.28289 30.8088 2.99894C30.545 3.67729 30.3189 4.29912 30.1305 4.86442C29.942 5.54277 29.7724 6.20229 29.6217 6.84296C29.5086 7.559 29.3767 8.44463 29.226 9.49986C29.0752 10.4043 28.8868 11.5538 28.6607 12.9482C28.4723 14.3049 28.2273 15.9254 27.9258 17.8097C26.7952 14.8702 25.6458 12.609 24.4775 11.0262C23.3469 9.44333 22.2917 8.27504 21.3118 7.52132C20.1812 6.65453 19.1072 6.1646 18.0896 6.05154C16.6199 6.05154 15.4139 6.33419 14.4717 6.89949C13.5296 7.46479 12.757 8.19967 12.154 9.10415C11.5887 9.97094 11.1553 10.9319 10.8538 11.9872C10.5523 13.0047 10.3451 14.0034 10.232 14.9832C10.1189 15.9254 10.0436 16.7733 10.0059 17.5271C9.9682 18.2431 9.93051 18.733 9.89282 18.9968C11.2119 18.9215 12.3236 18.8273 13.2281 18.7142C14.1326 18.6011 14.8486 18.4881 15.3762 18.375C16.0169 18.2243 16.5256 18.0735 16.9025 17.9228C17.4678 17.6213 18.0331 17.2633 18.5984 16.8487C19.0883 16.4719 19.5971 16.0196 20.1247 15.492C20.69 14.9644 21.1799 14.3237 21.5945 13.57C21.3684 14.9267 21.1611 16.0573 20.9727 16.9618C20.8219 17.8663 20.69 18.5823 20.5769 19.1099C20.4262 19.7506 20.332 20.2405 20.2943 20.5797C20.2189 20.9189 20.1247 21.3899 20.0116 21.9929C19.8986 22.5205 19.7667 23.1989 19.6159 24.028C19.4652 24.8571 19.2956 25.8935 19.1072 27.1371C18.6549 26.3457 18.1838 25.705 17.6939 25.2151C17.204 24.6875 16.7518 24.273 16.3372 23.9715C15.8473 23.6323 15.3762 23.3685 14.924 23.18C14.434 23.0293 13.9064 22.8786 13.3411 22.7278C12.8512 22.6148 12.2671 22.5017 11.5887 22.3886C10.948 22.2379 10.2508 22.106 9.49712 21.9929C9.57249 24.028 9.68555 25.7804 9.83629 27.2502C9.98704 28.6823 10.1189 29.8882 10.232 30.8681C10.3827 31.9987 10.5335 32.9408 10.6842 33.6946C10.8727 34.4483 11.1742 35.2586 11.5887 36.1254C11.9279 36.8791 12.399 37.7459 13.002 38.7257C13.6426 39.6679 14.4529 40.6854 15.4327 41.7783C14.679 41.5899 13.8876 41.458 13.0585 41.3826C12.2294 41.3072 11.4945 41.2507 10.8538 41.213C10.0624 41.1753 9.30868 41.1753 8.59264 41.213C7.83891 41.2507 7.00981 41.3261 6.10533 41.4391C5.3516 41.5145 4.48481 41.6276 3.50496 41.7783C2.52512 41.9291 1.48874 42.0987 0.39583 42.2871C1.0365 41.6464 1.56411 41.0058 1.97866 40.3651C2.39321 39.7244 2.69471 39.1591 2.88314 38.6692C3.10926 38.1039 3.26 37.5574 3.33538 37.0298C3.37306 36.5776 3.39191 35.5977 3.39191 34.0903C3.39191 32.5451 3.37306 30.755 3.33538 28.72C3.29769 26.6472 3.24116 24.4614 3.16579 22.1625C3.09041 19.8636 3.01504 17.7155 2.93967 15.7181C2.86429 13.6831 2.77008 11.9495 2.65702 10.5174C2.58165 9.0853 2.48743 8.21851 2.37437 7.91702C2.22362 7.54016 2.05404 7.10676 1.8656 6.61684C1.56411 5.82542 0.942284 4.67599 0.00012207 3.16853Z" fill="white"/>
</svg>
