<svg width="93" height="93" viewBox="0 0 93 93" fill="none" xmlns="http://www.w3.org/2000/svg">
<rect width="93" height="93" rx="24" fill="white"/>
<path d="M13.8263 24.592C20.3972 13.6987 31.2622 13.5285 35.8734 14.805C42.7901 15.1887 51.0037 19.9112 47.1131 45.017C43.2224 70.1227 28.092 72.2503 16.8523 67.9951C5.61265 63.7399 5.61265 38.2087 13.8263 24.592Z" fill="#FBB72E" stroke="black" stroke-width="1.5"/>
<path d="M37.7606 23.9969L36.4942 27.7363C34.5242 27.3209 30.4154 26.7392 29.74 27.7363C29.0645 28.7335 27.4886 37.5696 26.785 41.8631C28.6143 42.2786 32.3572 42.4448 32.6949 43.1095C33.0326 43.7743 32.2728 45.3255 31.8506 45.6025L25.9407 44.7715L22.1415 60.1447H17.9202L22.1415 44.356C21.0158 44.2175 18.7645 43.1095 18.7645 41.8631C18.7645 39.8412 21.438 40.4781 22.5637 41.0321C23.1266 38.4006 24.4211 32.0574 25.0965 27.7363C25.9408 22.335 27.2072 22.7504 28.4736 23.1659C29.4868 23.4983 35.0871 23.8584 37.7606 23.9969Z" fill="#070707"/>
<path d="M52.4867 44.2634L55.2756 37.0571L60.8535 37.3588C58.9942 33.9411 55.7637 26.7625 57.7159 25.3898C59.3322 24.5221 60.8259 26.6278 62.0135 29.5077C62.4763 28.1351 63.6424 27.1056 65.3855 27.7919C65.8503 28.1351 66.78 29.3018 66.78 31.2235C67.4772 28.8214 69.4992 24.1545 72.0093 24.7035C75.1468 25.3898 74.4496 27.7919 72.7065 31.2235C73.6121 31.7187 74.1517 32.5273 74.4496 33.4394C74.7982 33.0439 75.5652 31.7039 75.8441 29.5077C76.1927 26.7625 75.4954 24.3604 77.2385 24.0172C78.9816 23.6741 81.422 28.5199 80.3761 32.9393C79.6641 35.9482 79.2382 37.51 79.0555 38.11C80.1478 34.7566 82.7277 28.4783 84.9081 28.4783C87.1166 28.4783 86.1144 31.4369 85.2824 33.8932L85.2568 33.9688C84.4201 36.4394 83.3974 38.0564 82.9907 38.5561L86.9998 38.7729V45.636C86.4188 45.7504 85.187 46.6655 84.9081 49.4107C84.6292 52.1559 83.6299 64.2808 83.165 70H54.927C49.3491 70 47.9546 68.6274 47.606 65.8821C47.2574 63.1369 51.7894 52.1559 52.4867 49.7539C53.0444 47.8322 52.7191 45.2928 52.4867 44.2634Z" fill="#FBB72E"/>
<path d="M60.8535 37.3588L55.2756 37.0571L52.4867 44.2634C52.7191 45.2928 53.0444 47.8322 52.4867 49.7539C51.7894 52.1559 47.2574 63.1369 47.606 65.8821C47.9546 68.6274 49.3491 70 54.927 70C59.3893 70 75.6116 70 83.165 70C83.6299 64.2807 84.6292 52.1559 84.9081 49.4107C85.187 46.6655 86.4188 45.7504 86.9998 45.636V38.7729L82.9907 38.5561M60.8535 37.3588C58.9942 33.9411 55.7637 26.7625 57.7159 25.3898C59.3322 24.5221 60.8259 26.6278 62.0135 29.5077M60.8535 37.3588L64.3397 37.5473M64.3397 37.5473C63.8998 35.3051 63.0801 32.0942 62.0135 29.5077M64.3397 37.5473L66.78 37.6793M62.0135 29.5077C62.4763 28.1351 63.6424 27.1056 65.3855 27.7919C65.8503 28.1351 66.78 29.3018 66.78 31.2235M66.78 31.2235C66.78 33.1452 66.78 36.3281 66.78 37.6793M66.78 31.2235C67.4772 28.8214 69.4992 24.1545 72.0093 24.7035C75.1468 25.3898 74.4496 27.7919 72.7065 31.2235M66.78 37.6793L70.6148 37.8867M70.6148 37.8867C70.731 36.8095 71.312 33.9687 72.7065 31.2235M70.6148 37.8867L74.4496 38.0941M72.7065 31.2235C73.6121 31.7187 74.1517 32.5273 74.4496 33.4394M74.4496 38.0941C74.7467 36.9958 74.9773 35.0552 74.4496 33.4394M74.4496 38.0941L78.9816 38.3392M74.4496 33.4394C74.7982 33.0439 75.5652 31.7039 75.8441 29.5077C76.1927 26.7625 75.4954 24.3604 77.2385 24.0172C78.9816 23.6741 81.422 28.5199 80.3761 32.9393C79.5394 36.4749 79.0978 38.0124 78.9816 38.3392M78.9816 38.3392C80.0275 35.0522 82.677 28.4783 84.9081 28.4783C87.1393 28.4783 86.0934 31.4981 85.2568 33.9688C84.4201 36.4394 83.3975 38.0564 82.9907 38.5561M78.9816 38.3392L82.9907 38.5561" stroke="black" stroke-width="1.5"/>
<path d="M74.8542 62.0757L75.5189 63.346L69.6208 65.7378C68.752 65.8696 67.9133 65.9223 67.1047 65.8959C66.3138 65.8901 65.4686 65.8315 64.569 65.7201C62.3501 65.4453 60.4383 64.7389 58.8336 63.6009C57.249 62.4653 56.0768 61.0308 55.3172 59.2975C54.5798 57.5485 54.3391 55.6399 54.5952 53.5719C54.858 51.4494 55.8103 49.578 57.452 47.9578C59.0959 46.3195 61.0414 45.1145 63.2885 44.3428C65.5377 43.553 67.6219 43.2769 69.541 43.5145C70.6805 43.6556 71.993 43.9563 73.4786 44.4165C74.9642 44.8767 76.0377 45.3044 76.6992 45.6994L76.0456 50.9784L74.9061 50.8373C73.2597 47.7417 70.7973 45.9909 67.5188 45.5849C66.0795 45.4067 64.7263 45.5983 63.4593 46.1598C62.1945 46.7031 61.1447 47.5586 60.3101 48.7261C59.4976 49.878 58.9959 51.225 58.805 52.7669C58.5849 54.5447 58.7037 56.208 59.1615 57.7566C59.6392 59.3077 60.4927 60.6106 61.7221 61.6653C62.9514 62.7201 64.5555 63.37 66.5346 63.615C67.4142 63.7239 68.1472 63.7871 68.7337 63.8044C69.3202 63.8218 70.0312 63.7349 70.8667 63.5436L71.6619 57.1217L67.1889 55.3799L67.9234 54.3657L78.5385 55.68L78.434 56.5236L75.3326 58.2117L74.8542 62.0757Z" fill="black"/>
</svg>
