<svg width="26" height="27" viewBox="0 0 26 27" fill="none" xmlns="http://www.w3.org/2000/svg">
<path d="M2.43569 19.3689C1.29457 14.7929 0.724009 12.5063 1.92232 10.9676C3.12062 9.42896 5.47335 9.42896 10.1775 9.42896H16.3352C21.0407 9.42896 23.3921 9.42896 24.5904 10.9676C25.7887 12.5063 25.2181 14.7943 24.077 19.3689C23.3508 22.2796 22.9891 23.7342 21.9065 24.5822C20.8239 25.4289 19.3277 25.4289 16.3352 25.4289H10.1775C7.18502 25.4289 5.6888 25.4289 4.6062 24.5822C3.5236 23.7342 3.16052 22.2796 2.43569 19.3689Z" stroke="#FFBE2C" stroke-width="1.5"/>
<path opacity="0.5" d="M23.2316 10.0955L22.2873 6.62219C21.9229 5.2822 21.7407 4.61287 21.3669 4.10754C20.9943 3.60549 20.4882 3.21874 19.9066 2.99154C19.3214 2.76221 18.6299 2.76221 17.2467 2.76221M3.28198 10.0955L4.22626 6.62219C4.59067 5.2822 4.77288 4.61287 5.1466 4.10754C5.51923 3.60549 6.0253 3.21874 6.60691 2.99154C7.1921 2.76221 7.88368 2.76221 9.26685 2.76221" stroke="#FFBE2C" stroke-width="1.5"/>
<path d="M9.26672 2.76228C9.26672 2.40866 9.40685 2.06953 9.65626 1.81948C9.90568 1.56943 10.244 1.42896 10.5967 1.42896H15.9166C16.2693 1.42896 16.6076 1.56943 16.857 1.81948C17.1064 2.06953 17.2466 2.40866 17.2466 2.76228C17.2466 3.1159 17.1064 3.45504 16.857 3.70509C16.6076 3.95514 16.2693 4.09561 15.9166 4.09561H10.5967C10.244 4.09561 9.90568 3.95514 9.65626 3.70509C9.40685 3.45504 9.26672 3.1159 9.26672 2.76228Z" stroke="#FFBE2C" stroke-width="1.5"/>
<path opacity="0.5" d="M7.93652 14.7623V20.0956M18.5763 14.7623V20.0956M13.2564 14.7623V20.0956" stroke="#FFBE2C" stroke-width="1.5" stroke-linecap="round" stroke-linejoin="round"/>
</svg>
