<svg width="27" height="28" viewBox="0 0 27 28" fill="none" xmlns="http://www.w3.org/2000/svg">
<path opacity="0.4" d="M18.1132 2.75142H8.8832C5.53524 2.75142 3.58594 4.7197 3.58594 8.09231V19.515C3.58594 22.9429 5.53524 24.8669 8.8832 24.8669H18.1132C21.5151 24.8669 23.4094 22.9429 23.4094 19.515V8.09231C23.4094 4.7197 21.5151 2.75142 18.1132 2.75142Z" fill="#9796A1"/>
<path fill-rule="evenodd" clip-rule="evenodd" d="M9.18013 7.8931V7.90415C8.70547 7.90415 8.32111 8.29118 8.32111 8.76666C8.32111 9.24214 8.70547 9.62916 9.18013 9.62916H12.4719C12.9466 9.62916 13.332 9.24214 13.332 8.7545C13.332 8.28012 12.9466 7.8931 12.4719 7.8931H9.18013ZM17.8143 14.6273H9.18013C8.70547 14.6273 8.32111 14.2403 8.32111 13.7648C8.32111 13.2893 8.70547 12.9012 9.18013 12.9012H17.8143C18.2879 12.9012 18.6733 13.2893 18.6733 13.7648C18.6733 14.2403 18.2879 14.6273 17.8143 14.6273ZM17.8145 19.6806H9.1803C8.84991 19.7248 8.53053 19.559 8.35432 19.2825C8.17812 18.995 8.17812 18.6301 8.35432 18.3537C8.53053 18.0662 8.84991 17.9114 9.1803 17.9445H17.8145C18.2539 17.9888 18.5854 18.3647 18.5854 18.8181C18.5854 19.2593 18.2539 19.6364 17.8145 19.6806Z" fill="#9796A1"/>
</svg>
