<svg width="21" height="20" viewBox="0 0 21 20" fill="none" xmlns="http://www.w3.org/2000/svg">
<path d="M7.96899 16.3752L1.43999 16.3752" stroke="#BC6605" stroke-width="2" stroke-linecap="round"/>
<path d="M19.7209 16.3752L7.96895 16.3752" stroke="#BC6605" stroke-opacity="0.25" stroke-width="2" stroke-linecap="round"/>
<path d="M10.7869 16.252C10.7869 14.5952 9.44372 13.252 7.78687 13.252C6.13001 13.252 4.78687 14.5952 4.78687 16.252C4.78687 17.9089 6.13001 19.252 7.78687 19.252C9.44372 19.252 10.7869 17.9089 10.7869 16.252Z" fill="#BC6605" stroke="#BC6605" stroke-width="1.5"/>
<path d="M13.1919 4.12885L19.7209 4.12884" stroke="#BC6605" stroke-width="2" stroke-linecap="round"/>
<path d="M1.43994 4.12885L13.1919 4.12884" stroke="#BC6605" stroke-opacity="0.25" stroke-width="2" stroke-linecap="round"/>
<path d="M10.4399 4.25201C10.4399 5.90887 11.7831 7.25201 13.4399 7.25201C15.0968 7.25201 16.4399 5.90887 16.4399 4.25201C16.4399 2.59516 15.0968 1.25201 13.4399 1.25201C11.7831 1.25201 10.4399 2.59516 10.4399 4.25201Z" fill="#BC6605" stroke="#BC6605" stroke-width="1.5"/>
</svg>
