<svg width="21" height="22" viewBox="0 0 21 22" fill="none" xmlns="http://www.w3.org/2000/svg">
<path d="M10.6833 21.4393L10.6722 21.4413L10.6006 21.4766L10.5804 21.4806L10.5663 21.4766L10.4947 21.4413C10.4839 21.4379 10.4759 21.4396 10.4705 21.4463L10.4664 21.4564L10.4493 21.888L10.4543 21.9082L10.4644 21.9213L10.5693 21.996L10.5844 22L10.5965 21.996L10.7014 21.9213L10.7135 21.9052L10.7176 21.888L10.7004 21.4574C10.6977 21.4466 10.692 21.4406 10.6833 21.4393ZM10.9505 21.3253L10.9374 21.3273L10.7508 21.4211L10.7408 21.4312L10.7377 21.4423L10.7559 21.8759L10.7609 21.888L10.769 21.8951L10.9717 21.9889C10.9845 21.9923 10.9942 21.9896 11.001 21.9808L11.005 21.9667L10.9707 21.3475C10.9673 21.3354 10.9606 21.328 10.9505 21.3253ZM10.2294 21.3273C10.225 21.3246 10.2197 21.3237 10.2146 21.3249C10.2095 21.326 10.2051 21.329 10.2022 21.3334L10.1962 21.3475L10.1619 21.9667C10.1625 21.9788 10.1683 21.9869 10.179 21.9909L10.1941 21.9889L10.3969 21.8951L10.4069 21.887L10.411 21.8759L10.4281 21.4423L10.4251 21.4302L10.415 21.4201L10.2294 21.3273Z" fill="#9796A1"/>
<path d="M10.0853 0C15.6554 0 20.1705 4.51517 20.1705 10.0853C20.1705 15.6554 15.6554 20.1705 10.0853 20.1705C4.51517 20.1705 0 15.6554 0 10.0853C0 4.51517 4.51517 0 10.0853 0ZM10.0853 14.1194C9.81779 14.1194 9.56127 14.2256 9.37213 14.4148C9.183 14.6039 9.07674 14.8604 9.07674 15.1279C9.07674 15.3954 9.183 15.6519 9.37213 15.841C9.56127 16.0302 9.81779 16.1364 10.0853 16.1364C10.3527 16.1364 10.6093 16.0302 10.7984 15.841C10.9875 15.6519 11.0938 15.3954 11.0938 15.1279C11.0938 14.8604 10.9875 14.6039 10.7984 14.4148C10.6093 14.2256 10.3527 14.1194 10.0853 14.1194ZM10.0853 4.53837C9.11566 4.53837 8.18576 4.92355 7.50015 5.60916C6.81453 6.29478 6.42936 7.22467 6.42936 8.19428C6.42936 8.46176 6.53561 8.71828 6.72475 8.90742C6.91388 9.09655 7.17041 9.20281 7.43788 9.20281C7.70536 9.20281 7.96188 9.09655 8.15102 8.90742C8.34016 8.71828 8.44641 8.46176 8.44641 8.19428C8.44674 7.8968 8.52804 7.60502 8.68158 7.35023C8.83513 7.09544 9.05512 6.88725 9.31798 6.74797C9.58085 6.6087 9.87666 6.5436 10.1737 6.55965C10.4708 6.5757 10.7578 6.6723 11.0041 6.8391C11.2505 7.00589 11.4467 7.23658 11.5719 7.50643C11.6971 7.77629 11.7465 8.07513 11.7148 8.37091C11.683 8.66669 11.5714 8.94826 11.3918 9.18542C11.2123 9.42259 10.9715 9.6064 10.6954 9.71715C10.0137 9.98946 9.07674 10.6874 9.07674 11.8502V12.1023C9.07674 12.3698 9.183 12.6263 9.37213 12.8155C9.56127 13.0046 9.81779 13.1108 10.0853 13.1108C10.3527 13.1108 10.6093 13.0046 10.7984 12.8155C10.9875 12.6263 11.0938 12.3698 11.0938 12.1023C11.0938 11.8562 11.1442 11.7332 11.357 11.6283L11.4448 11.588C12.2322 11.2712 12.885 10.6903 13.2911 9.945C13.6972 9.19966 13.8314 8.33626 13.6707 7.50282C13.51 6.66937 13.0643 5.91779 12.4102 5.37693C11.756 4.83607 10.9341 4.5396 10.0853 4.53837Z" fill="#9796A1"/>
</svg>
