<svg width="17" height="20" viewBox="0 0 17 20" fill="none" xmlns="http://www.w3.org/2000/svg">
<path fill-rule="evenodd" clip-rule="evenodd" d="M4.67796 2.01871C7.08414 0.61493 10.0417 0.639465 12.4253 2.08298C14.7855 3.55589 16.22 6.18461 16.2066 9.01237C16.1517 11.8216 14.6135 14.4622 12.6909 16.5036C11.5811 17.6871 10.3397 18.7337 8.99199 19.6218C8.85319 19.7024 8.70115 19.7564 8.54337 19.781C8.39152 19.7745 8.24363 19.7295 8.11306 19.6499C6.05547 18.3154 4.25033 16.6119 2.7845 14.6214C1.55793 12.9599 0.861079 10.9525 0.788575 8.87191C0.786983 6.03872 2.27177 3.42249 4.67796 2.01871ZM6.06843 10.0443C6.47318 11.0462 7.42856 11.6997 8.48848 11.6998C9.18285 11.7048 9.85033 11.4255 10.3422 10.9242C10.8341 10.4229 11.1094 9.74119 11.107 9.031C11.1107 7.94696 10.4751 6.96755 9.49689 6.55008C8.51873 6.1326 7.39096 6.35941 6.64018 7.12461C5.88939 7.8898 5.66368 9.04244 6.06843 10.0443Z" fill="#9796A1"/>
</svg>
