<svg width="24" height="24" viewBox="0 0 24 24" fill="none" xmlns="http://www.w3.org/2000/svg">
<g clip-path="url(#clip0_1321_388)">
<path d="M11.9999 1.33333C9.89026 1.33333 7.82797 1.95892 6.07384 3.13099C4.31972 4.30305 2.95254 5.96896 2.14521 7.91804C1.33787 9.86712 1.12664 12.0118 1.53821 14.081C1.94979 16.1501 2.96569 18.0507 4.45745 19.5425C5.94921 21.0342 7.84983 22.0501 9.91896 22.4617C11.9881 22.8733 14.1328 22.662 16.0819 21.8547C18.031 21.0474 19.6969 19.6802 20.8689 17.9261C22.041 16.172 22.6666 14.1097 22.6666 12C22.6666 9.17102 21.5428 6.45791 19.5424 4.45752C17.542 2.45713 14.8289 1.33333 11.9999 1.33333ZM12.0399 13.12C11.9273 13.1209 11.8156 13.0995 11.7113 13.057C11.607 13.0145 11.5122 12.9518 11.4322 12.8724C11.3523 12.7931 11.2888 12.6987 11.2455 12.5948C11.2022 12.4908 11.1799 12.3793 11.1799 12.2667V5.76666C11.1799 5.53858 11.2705 5.31983 11.4318 5.15855C11.5931 4.99727 11.8118 4.90666 12.0399 4.90666C12.268 4.90666 12.4868 4.99727 12.648 5.15855C12.8093 5.31983 12.8999 5.53858 12.8999 5.76666V12.2667C12.8999 12.3793 12.8776 12.4908 12.8343 12.5948C12.791 12.6987 12.7276 12.7931 12.6476 12.8724C12.5677 12.9518 12.4728 13.0145 12.3685 13.057C12.2642 13.0995 12.1525 13.1209 12.0399 13.12ZM11.9999 18.5267C10.5958 18.5433 9.2231 18.1107 8.08217 17.2921C6.94124 16.4735 6.0918 15.3116 5.6578 13.9761C5.22381 12.6407 5.22798 11.2014 5.66971 9.86849C6.11144 8.53554 6.9676 7.37866 8.11326 6.56666C8.3128 6.42443 8.56028 6.36638 8.80226 6.40505C9.04424 6.44371 9.2613 6.57599 9.40659 6.77333C9.47752 6.87078 9.52845 6.9813 9.55646 7.09853C9.58447 7.21576 9.589 7.33737 9.56979 7.45636C9.55058 7.57535 9.508 7.68936 9.44453 7.79181C9.38105 7.89427 9.29791 7.98315 9.19992 8.05333C8.54095 8.53728 8.01692 9.18196 7.67779 9.9259C7.33866 10.6698 7.19574 11.4882 7.26266 12.3031C7.32957 13.1179 7.60408 13.9021 8.06003 14.5807C8.51597 15.2594 9.13815 15.8099 9.86725 16.1799C10.5963 16.5499 11.408 16.7269 12.225 16.6942C13.0419 16.6614 13.8369 16.42 14.534 15.9928C15.2311 15.5657 15.8073 14.9671 16.2074 14.2541C16.6076 13.5412 16.8184 12.7376 16.8199 11.92C16.8177 11.1667 16.6349 10.4249 16.2869 9.75676C15.939 9.08864 15.4359 8.51365 14.8199 8.08C14.6303 7.93031 14.5076 7.71157 14.4789 7.47166C14.4501 7.23176 14.5176 6.99024 14.6666 6.79999C14.8139 6.60475 15.0319 6.47511 15.2737 6.43896C15.5156 6.4028 15.762 6.46302 15.9599 6.60666C17.0936 7.42796 17.9361 8.58911 18.3653 9.92163C18.7944 11.2542 18.7878 12.6888 18.3464 14.0173C17.9051 15.3458 17.0519 16.4992 15.9107 17.31C14.7695 18.1209 13.3997 18.547 11.9999 18.5267Z" fill="black"/>
</g>
<defs>
<clipPath id="clip0_1321_388">
<rect width="24" height="24" fill="white"/>
</clipPath>
</defs>
</svg>
