<svg width="27" height="27" viewBox="0 0 27 27" fill="none" xmlns="http://www.w3.org/2000/svg">
<path opacity="0.4" d="M24.5102 8.90732V17.6368C24.5154 19.1151 23.9343 20.5348 22.8949 21.5829C21.8555 22.631 20.4433 23.2214 18.9695 23.224H8.05464C6.57828 23.2266 5.1615 22.6402 4.11663 21.5939C3.07177 20.5476 2.48462 19.1275 2.48462 17.6466V8.90732C2.48542 8.25699 2.60143 7.61197 2.82724 7.00236C3.62289 4.79326 5.71303 3.32093 8.05464 3.32008H18.9402C21.3103 3.31875 23.4208 4.82468 24.1969 7.07109C24.4123 7.65884 24.5185 8.28119 24.5102 8.90732Z" fill="#9796A1"/>
<path d="M24.1971 7.08091L24.0894 7.16929C22.0631 8.75021 15.5043 14.0429 15.5043 14.0429C14.3639 14.9732 12.7292 14.9732 11.5887 14.0429C11.5887 14.0429 5.06911 8.76003 3.04275 7.17911L2.82739 7.01218C3.61978 4.7992 5.71066 3.32242 8.0548 3.32008H18.9403C21.3131 3.3202 23.4243 4.83063 24.1971 7.08091Z" fill="#9796A1"/>
</svg>
