<svg width="27" height="27" viewBox="0 0 27 27" fill="none" xmlns="http://www.w3.org/2000/svg">
<path opacity="0.4" d="M13.4976 14.6535C16.919 14.6535 19.6926 11.9031 19.6926 8.51026C19.6926 5.11747 16.919 2.36707 13.4976 2.36707C10.0763 2.36707 7.30273 5.11747 7.30273 8.51026C7.30273 11.9031 10.0763 14.6535 13.4976 14.6535Z" fill="#9796A1"/>
<path d="M23.3986 20.8067C23.4042 20.7192 23.4042 20.6315 23.3986 20.5441C23.3741 20.221 23.2828 19.9054 23.1298 19.615C22.5276 18.4335 20.8392 17.8983 19.4305 17.5954C18.4254 17.3853 17.4042 17.2502 16.3764 17.1914L15.301 17.1106H14.8171H14.2149H12.7739H12.1717H11.6877L10.6124 17.1914C9.58457 17.2502 8.56336 17.3853 7.55828 17.5954C6.14953 17.8579 4.46119 18.4032 3.85897 19.615C3.70596 19.9054 3.61465 20.221 3.59013 20.5441C3.58454 20.6315 3.58454 20.7192 3.59013 20.8067C3.58497 20.8941 3.58497 20.9818 3.59013 21.0692C3.61938 21.3896 3.71432 21.7016 3.86973 21.9882C4.47194 23.1697 6.16028 23.7049 7.56903 24.0079C8.57599 24.2081 9.59642 24.3431 10.6231 24.4118L11.6985 24.4825H11.9566H12.1824H14.8278H15.0537H15.3118L16.3871 24.4118C17.4138 24.3431 18.4343 24.2081 19.4412 24.0079C20.85 23.7352 22.5383 23.2 23.1405 21.9882C23.2887 21.6926 23.3797 21.3746 23.4094 21.049C23.4107 20.9681 23.4071 20.8872 23.3986 20.8067Z" fill="#9796A1"/>
</svg>
