<svg width="27" height="28" viewBox="0 0 27 28" fill="none" xmlns="http://www.w3.org/2000/svg">
<path opacity="0.4" d="M22.8347 15.7847C21.7925 15.1789 21.4318 13.8724 22.0206 12.8359C22.2139 12.5013 22.4949 12.2231 22.8347 12.03C23.3512 11.7399 23.7284 11.2608 23.883 10.6983C24.0376 10.1358 23.957 9.53631 23.6589 9.03209L22.9252 7.74448C22.6286 7.2394 22.1386 6.87054 21.5635 6.71932C20.9883 6.5681 20.3753 6.64696 19.8597 6.93849C19.3426 7.23048 18.728 7.3096 18.1512 7.15845C17.5744 7.0073 17.0827 6.63825 16.7841 6.13251C16.5887 5.79693 16.4849 5.41782 16.4826 5.03165C16.4853 4.44863 16.2503 3.88859 15.8297 3.4754C15.4091 3.06221 14.8375 2.82993 14.2413 2.82994H12.7638C11.5243 2.82993 10.518 3.80969 10.5124 5.02182C10.5166 5.80797 10.09 6.53611 9.39434 6.93009C8.69868 7.32406 7.84054 7.32352 7.1454 6.92866C6.62505 6.62527 6.00127 6.5408 5.41619 6.69448C4.83111 6.84818 4.33457 7.22694 4.0397 7.74448L3.33614 8.98294C2.72121 10.0339 3.0894 11.3731 4.16031 11.9808C5.23358 12.5921 5.59787 13.938 4.97442 14.9885C4.78374 15.3225 4.50188 15.5982 4.16031 15.7847C3.64384 16.0747 3.26665 16.5539 3.11202 17.1163C2.95739 17.6788 3.03803 18.2783 3.33614 18.7825L4.0397 20.0406C4.6648 21.0902 6.04101 21.4465 7.11525 20.8368C8.19062 20.2412 9.55579 20.6001 10.1807 21.6428C10.3797 21.977 10.4837 22.357 10.4823 22.7436C10.4822 23.331 10.7222 23.894 11.1488 24.3075C11.5754 24.721 12.1532 24.9506 12.7538 24.9454H14.2312C15.4746 24.9454 16.4826 23.9596 16.4826 22.7436C16.4745 22.1572 16.7071 21.5921 17.1283 21.1747C17.5495 20.7572 18.1242 20.5222 18.7239 20.5223C19.1195 20.5199 19.5083 20.6217 19.8496 20.8171C20.9243 21.4185 22.2938 21.0584 22.9151 20.0112L23.6589 18.753C24.2594 17.7095 23.8924 16.3879 22.8347 15.7847Z" fill="#9796A1"/>
<path d="M13.4974 16.6523C15.018 16.6523 16.2506 15.4146 16.2506 13.8879C16.2506 12.3611 15.018 11.1234 13.4974 11.1234C11.9768 11.1234 10.7441 12.3611 10.7441 13.8879C10.7441 15.4146 11.9768 16.6523 13.4974 16.6523Z" fill="#9796A1"/>
</svg>
