<svg width="27" height="27" viewBox="0 0 27 27" fill="none" xmlns="http://www.w3.org/2000/svg">
<path fill-rule="evenodd" clip-rule="evenodd" d="M24.5067 9.64807H19.8431C17.6728 9.6519 15.9146 11.3731 15.9107 13.4978C15.9078 15.6272 17.6679 17.3561 19.8431 17.3589H24.5106V17.6972C24.5106 21.4118 22.2679 23.6083 18.4726 23.6083H8.52367C4.72736 23.6083 2.48462 21.4118 2.48462 17.6972V9.60686C2.48462 5.8923 4.72736 3.70439 8.52367 3.70439H18.4687C22.264 3.70439 24.5067 5.8923 24.5067 9.60686V9.64807ZM7.70423 9.63955H13.9156H13.9195H13.9273C14.3923 9.63763 14.7682 9.26675 14.7663 8.81058C14.7643 8.35536 14.3845 7.98736 13.9195 7.98927H7.70423C7.24217 7.99119 6.86724 8.35824 6.86528 8.81154C6.86333 9.26675 7.23924 9.63763 7.70423 9.63955Z" fill="#9796A1"/>
<path opacity="0.4" d="M17.9443 13.9843C18.1746 15.0361 19.093 15.7761 20.1416 15.7569H23.7207C24.157 15.7569 24.5109 15.3941 24.5109 14.9456V12.1463C24.5099 11.6988 24.157 11.3351 23.7207 11.3341H20.0573C18.8646 11.338 17.9012 12.332 17.9031 13.557C17.9031 13.7004 17.9171 13.8438 17.9443 13.9843Z" fill="#9796A1"/>
<path d="M20.1057 14.6515C20.7139 14.6515 21.207 14.1564 21.207 13.5457C21.207 12.935 20.7139 12.4399 20.1057 12.4399C19.4975 12.4399 19.0044 12.935 19.0044 13.5457C19.0044 14.1564 19.4975 14.6515 20.1057 14.6515Z" fill="#9796A1"/>
</svg>
